<?xml version='1.0' encoding='utf-8'?>
<svg xmlns="http://www.w3.org/2000/svg" viewBox="132 468 1656 480" width="1656" height="480" role="img" aria-label="omadesign — deSiGN wordmark">
  <title>omadesign</title>
  <path d="M 444.000 492.000 L 348.000 492.000 L 348.000 924.000 L 156.000 924.000 L 156.000 732.000 L 276.000 732.000" fill="none" stroke="#1E2B2D" stroke-width="48.00" stroke-linecap="square" stroke-linejoin="miter" fill-rule="evenodd" opacity="1.000" />
  <path d="M 540.000 828.000 L 660.000 828.000 L 660.000 732.000 L 468.000 732.000 L 468.000 924.000 L 660.000 924.000" fill="none" stroke="#1E2B2D" stroke-width="48.00" stroke-linecap="square" stroke-linejoin="miter" fill-rule="evenodd" opacity="1.000" />
  <path d="M 972.000 732.000 L 780.000 732.000 L 780.000 828.000 L 972.000 828.000 L 972.000 924.000 L 780.000 924.000" fill="none" stroke="#1E2B2D" stroke-width="48.00" stroke-linecap="square" stroke-linejoin="miter" fill-rule="evenodd" opacity="1.000" />
  <path d="M 1164.000 732.000 L 1116.000 732.000 L 1116.000 924.000 L 1068.000 924.000" fill="none" stroke="#1E2B2D" stroke-width="48.00" stroke-linecap="square" stroke-linejoin="miter" fill-rule="evenodd" opacity="1.000" />
  <rect x="1092.000" y="636.000" width="48.000" height="48.000" fill="#1E2B2D" opacity="1.000" />
  <path d="M 1452.000 780.000 L 1452.000 732.000 L 1260.000 732.000 L 1260.000 924.000 L 1452.000 924.000 L 1452.000 852.000 L 1356.000 852.000" fill="none" stroke="#1E2B2D" stroke-width="48.00" stroke-linecap="square" stroke-linejoin="miter" fill-rule="evenodd" opacity="1.000" />
  <path d="M 1572.000 924.000 L 1572.000 732.000 L 1668.000 732.000 L 1668.000 924.000 L 1764.000 924.000 L 1764.000 732.000" fill="none" stroke="#1E2B2D" stroke-width="48.00" stroke-linecap="square" stroke-linejoin="miter" fill-rule="evenodd" opacity="1.000" />
</svg>