<?xml version="1.0" encoding="UTF-8"?>
<svg xmlns="http://www.w3.org/2000/svg" width="1920" height="1080" viewBox="0 0 1920 1080">
<defs>
<filter id="oma-fx-s10" filterUnits="userSpaceOnUse" primitiveUnits="userSpaceOnUse" x="534.0" y="42.0" width="852.0" height="852.0" color-interpolation-filters="sRGB">
<feGaussianBlur in="SourceGraphic" stdDeviation="22.000" result="a1"/>
</filter>
<filter id="oma-fx-s11" filterUnits="userSpaceOnUse" primitiveUnits="userSpaceOnUse" x="90.0" y="426.0" width="420.0" height="564.0" color-interpolation-filters="sRGB">
<feGaussianBlur in="SourceGraphic" stdDeviation="12.000" result="a2"/>
<feOffset in="a2" dx="0.00" dy="10.00" result="a3"/>
<feFlood flood-color="#000000" flood-opacity="0.902" result="a4"/>
<feComposite in="a4" in2="a3" operator="in" result="a5"/>
<feComposite in="SourceGraphic" in2="a5" operator="over" result="a1"/>
</filter>
<filter id="oma-fx-s12" filterUnits="userSpaceOnUse" primitiveUnits="userSpaceOnUse" x="402.0" y="666.0" width="324.0" height="324.0" color-interpolation-filters="sRGB">
<feGaussianBlur in="SourceGraphic" stdDeviation="12.000" result="a2"/>
<feOffset in="a2" dx="0.00" dy="10.00" result="a3"/>
<feFlood flood-color="#000000" flood-opacity="0.902" result="a4"/>
<feComposite in="a4" in2="a3" operator="in" result="a5"/>
<feComposite in="SourceGraphic" in2="a5" operator="over" result="a1"/>
</filter>
<filter id="oma-fx-s13" filterUnits="userSpaceOnUse" primitiveUnits="userSpaceOnUse" x="714.0" y="666.0" width="324.0" height="324.0" color-interpolation-filters="sRGB">
<feGaussianBlur in="SourceGraphic" stdDeviation="12.000" result="a2"/>
<feOffset in="a2" dx="0.00" dy="10.00" result="a3"/>
<feFlood flood-color="#000000" flood-opacity="0.902" result="a4"/>
<feComposite in="a4" in2="a3" operator="in" result="a5"/>
<feComposite in="SourceGraphic" in2="a5" operator="over" result="a1"/>
</filter>
<filter id="oma-fx-s14" filterUnits="userSpaceOnUse" primitiveUnits="userSpaceOnUse" x="1002.0" y="666.0" width="228.0" height="324.0" color-interpolation-filters="sRGB">
<feGaussianBlur in="SourceGraphic" stdDeviation="12.000" result="a2"/>
<feOffset in="a2" dx="0.00" dy="10.00" result="a3"/>
<feFlood flood-color="#000000" flood-opacity="0.902" result="a4"/>
<feComposite in="a4" in2="a3" operator="in" result="a5"/>
<feComposite in="SourceGraphic" in2="a5" operator="over" result="a1"/>
</filter>
<filter id="oma-fx-s15" filterUnits="userSpaceOnUse" primitiveUnits="userSpaceOnUse" x="1026.0" y="570.0" width="180.0" height="180.0" color-interpolation-filters="sRGB">
<feGaussianBlur in="SourceGraphic" stdDeviation="12.000" result="a2"/>
<feOffset in="a2" dx="0.00" dy="10.00" result="a3"/>
<feFlood flood-color="#000000" flood-opacity="0.902" result="a4"/>
<feComposite in="a4" in2="a3" operator="in" result="a5"/>
<feComposite in="SourceGraphic" in2="a5" operator="over" result="a1"/>
</filter>
<filter id="oma-fx-s16" filterUnits="userSpaceOnUse" primitiveUnits="userSpaceOnUse" x="1194.0" y="666.0" width="324.0" height="324.0" color-interpolation-filters="sRGB">
<feGaussianBlur in="SourceGraphic" stdDeviation="12.000" result="a2"/>
<feOffset in="a2" dx="0.00" dy="10.00" result="a3"/>
<feFlood flood-color="#000000" flood-opacity="0.902" result="a4"/>
<feComposite in="a4" in2="a3" operator="in" result="a5"/>
<feComposite in="SourceGraphic" in2="a5" operator="over" result="a1"/>
</filter>
<filter id="oma-fx-s17" filterUnits="userSpaceOnUse" primitiveUnits="userSpaceOnUse" x="1506.0" y="666.0" width="324.0" height="324.0" color-interpolation-filters="sRGB">
<feGaussianBlur in="SourceGraphic" stdDeviation="12.000" result="a2"/>
<feOffset in="a2" dx="0.00" dy="10.00" result="a3"/>
<feFlood flood-color="#000000" flood-opacity="0.902" result="a4"/>
<feComposite in="a4" in2="a3" operator="in" result="a5"/>
<feComposite in="SourceGraphic" in2="a5" operator="over" result="a1"/>
</filter>
</defs>
<g opacity="1.000" style="mix-blend-mode:normal">
  <rect id="oma-9" x="0.000" y="0.000" width="1920.000" height="1080.000" fill="#000000" opacity="1.000"/>
</g>
<g opacity="1.000" style="mix-blend-mode:normal">
  <path id="oma-10" d="M 1290.000 798.000 L 1026.000 798.000 L 1026.000 754.000 L 1246.000 754.000 L 1246.000 182.000 L 982.002 182.000 L 982.002 270.000 L 762.002 270.000 L 762.002 666.000 L 1158.002 666.000 L 1158.002 270.000 L 1114.002 270.000 L 1114.002 226.000 L 1202.000 226.000 L 1202.000 710.000 L 982.000 710.000 L 982.000 798.000 L 630.000 798.000 L 630.000 138.000 L 1290.000 138.000 Z M 674.000 754.000 L 938.000 754.000 L 938.000 710.000 L 718.000 710.000 L 718.002 490.000 L 674.000 490.000 Z M 674.000 446.000 L 718.002 446.000 L 718.002 226.000 L 938.002 226.000 L 938.002 182.000 L 674.000 182.000 Z" fill="#9ECE6A" fill-rule="evenodd" opacity="0.820" filter="url(#oma-fx-s10)"/>
</g>
<g opacity="1.000" style="mix-blend-mode:normal">
  <path id="oma-11" d="M 444.000 492.000 L 348.000 492.000 L 348.000 924.000 L 156.000 924.000 L 156.000 732.000 L 276.000 732.000" fill="none" stroke="#FFFFFF" stroke-width="48.00" stroke-linecap="square" stroke-linejoin="miter" fill-rule="evenodd" opacity="1.000" filter="url(#oma-fx-s11)"/>
  <path id="oma-12" d="M 540.000 828.000 L 660.000 828.000 L 660.000 732.000 L 468.000 732.000 L 468.000 924.000 L 660.000 924.000" fill="none" stroke="#FFFFFF" stroke-width="48.00" stroke-linecap="square" stroke-linejoin="miter" fill-rule="evenodd" opacity="1.000" filter="url(#oma-fx-s12)"/>
  <path id="oma-13" d="M 972.000 780.000 L 972.000 732.000 L 780.000 732.000 L 780.000 828.000 L 972.000 828.000 L 972.000 924.000 L 780.000 924.000" fill="none" stroke="#FFFFFF" stroke-width="48.00" stroke-linecap="square" stroke-linejoin="miter" fill-rule="evenodd" opacity="1.000" filter="url(#oma-fx-s13)"/>
  <path id="oma-14" d="M 1164.000 732.000 L 1116.000 732.000 L 1116.000 924.000 L 1068.000 924.000" fill="none" stroke="#FFFFFF" stroke-width="48.00" stroke-linecap="square" stroke-linejoin="miter" fill-rule="evenodd" opacity="1.000" filter="url(#oma-fx-s14)"/>
  <rect id="oma-15" x="1092.000" y="636.000" width="48.000" height="48.000" fill="#FFFFFF" opacity="1.000" filter="url(#oma-fx-s15)"/>
  <path id="oma-16" d="M 1452.000 780.000 L 1452.000 732.000 L 1260.000 732.000 L 1260.000 924.000 L 1452.000 924.000 L 1452.000 852.000 L 1356.000 852.000" fill="none" stroke="#FFFFFF" stroke-width="48.00" stroke-linecap="square" stroke-linejoin="miter" fill-rule="evenodd" opacity="1.000" filter="url(#oma-fx-s16)"/>
  <path id="oma-17" d="M 1572.000 924.000 L 1572.000 732.000 L 1668.000 732.000 L 1668.000 924.000 L 1764.000 924.000 L 1764.000 732.000" fill="none" stroke="#FFFFFF" stroke-width="48.00" stroke-linecap="square" stroke-linejoin="miter" fill-rule="evenodd" opacity="1.000" filter="url(#oma-fx-s17)"/>
</g>
</svg>
