<svg xmlns="http://www.w3.org/2000/svg" width="280" height="280" viewBox="0 0 280 280">
  <title>Fieldwork / seed paper</title>
  <path d="M 0 0 H 280 V 280 H 0 Z" fill="#F4EDDF"/>
  <path d="M 28 63 C 27 39 43 28 64 29 C 65 52 50 65 28 63 Z" fill="#96A58B"/>
  <path d="M 90 29 C 113 28 127 42 126 63 C 102 64 89 51 90 29 Z" fill="#D5AE55"/>
  <path d="M 152 63 C 151 39 167 28 188 29 C 189 52 174 65 152 63 Z" fill="#96A58B"/>
  <path d="M 214 29 C 237 28 251 42 250 63 C 226 64 213 51 214 29 Z" fill="#D5AE55"/>
  <path d="M 28 91 C 51 90 65 104 64 125 C 40 126 27 113 28 91 Z" fill="#E47D65"/>
  <path d="M 90 125 C 89 101 105 90 126 91 C 127 114 112 127 90 125 Z" fill="#253A35"/>
  <path d="M 152 91 C 175 90 189 104 188 125 C 164 126 151 113 152 91 Z" fill="#E47D65"/>
  <path d="M 214 125 C 213 101 229 90 250 91 C 251 114 236 127 214 125 Z" fill="#253A35"/>
  <path d="M 28 187 C 27 163 43 152 64 153 C 65 176 50 189 28 187 Z" fill="#D5AE55"/>
  <path d="M 90 153 C 113 152 127 166 126 187 C 102 188 89 175 90 153 Z" fill="#96A58B"/>
  <path d="M 152 187 C 151 163 167 152 188 153 C 189 176 174 189 152 187 Z" fill="#D5AE55"/>
  <path d="M 214 153 C 237 152 251 166 250 187 C 226 188 213 175 214 153 Z" fill="#96A58B"/>
  <path d="M 28 215 C 51 214 65 228 64 249 C 40 250 27 237 28 215 Z" fill="#253A35"/>
  <path d="M 90 249 C 89 225 105 214 126 215 C 127 238 112 251 90 249 Z" fill="#E47D65"/>
  <path d="M 152 215 C 175 214 189 228 188 249 C 164 250 151 237 152 215 Z" fill="#253A35"/>
  <path d="M 214 249 C 213 225 229 214 250 215 C 251 238 236 251 214 249 Z" fill="#E47D65"/>
</svg>
